<?xml version="1.0" encoding="UTF-8"?>
<svg xmlns="http://www.w3.org/2000/svg" id="Layer_1" data-name="Layer 1" viewBox="0 0 512 512" fill="#69707a" width="512" height="512"><path d="M44,296.763a6,6,0,0,0-6,6v6.3a6,6,0,0,0,12,0v-6.3A6,6,0,0,0,44,296.763Z"/><path d="M44,322.058a6,6,0,0,0-6,6v66a6,6,0,0,0,12,0v-66A6,6,0,0,0,44,322.058Z"/><path d="M495.13,230H456V32.592A5.286,5.286,0,0,0,450.46,27h-218.4a5.82,5.82,0,0,0-4.293,1.6l-41,41.849A5.816,5.816,0,0,0,185,74.542V230H57.6a5.935,5.935,0,0,0-4.242,1.693L12.58,272.61A5.768,5.768,0,0,0,11,276.82V479.408A5.37,5.37,0,0,0,16.646,485H454.4a5.815,5.815,0,0,0,4.242-1.554L499.42,442.6a5.6,5.6,0,0,0,1.58-4.14V235.87A5.87,5.87,0,0,0,495.13,230ZM435.975,39,407.024,68H314.793l28.95-29ZM444,47.077V232.694l-28,28.951V76.027ZM325,80v25H276V80ZM234.585,39h92.189L297.823,68h-91.5ZM197,80h67v31.338A5.445,5.445,0,0,0,269.668,117h61.526A5.558,5.558,0,0,0,337,111.338V80h67V271H335V221.094a5.909,5.909,0,0,0-10.224-4.131l-5.1,5.4-5.355-5.515A6.014,6.014,0,0,0,310.046,215h-.016a6.03,6.03,0,0,0-4.29,1.868l-5.309,5.494-5.308-5.506a6.018,6.018,0,0,0-4.29-1.856h-.016a6.047,6.047,0,0,0-4.284,1.846l-5.365,5.492-5.124-5.387a5.751,5.751,0,0,0-6.422-1.435A5.87,5.87,0,0,0,266,221.094V271H197ZM321,283h49v26H321Zm-43-12V235.941A5.568,5.568,0,0,0,281.2,237a6.023,6.023,0,0,0,4.255-1.8l5.374-5.517,5.313,5.5a5.984,5.984,0,0,0,8.6,0l5.329-5.5,5.411,5.517a5.97,5.97,0,0,0,4.247,1.8A5.778,5.778,0,0,0,323,235.941V271Zm-93-29v29H140.332l28.95-29Zm-34,41v26H101V283ZM60.082,242h92.231l-28.951,29H31.131ZM149,473H103V439.22a6.416,6.416,0,0,0,3.472,1.06,6.239,6.239,0,0,0,4.39-1.8l5.442-5.517,5.346,5.5a6.013,6.013,0,0,0,8.622,0l5.334-5.5,5.413,5.517a6.317,6.317,0,0,0,4.479,1.8,6.516,6.516,0,0,0,3.5-1.06Zm219,0H323V439.22a5.4,5.4,0,0,0,3.15,1.06,5.883,5.883,0,0,0,4.229-1.8l5.361-5.517,5.305,5.5a5.979,5.979,0,0,0,8.593,0l5.328-5.5,5.411,5.517a5.867,5.867,0,0,0,4.3,1.8A5.935,5.935,0,0,0,368,439.22Zm80,0H380V424.372a5.966,5.966,0,0,0-10.3-4.131l-5.117,5.4-5.361-5.655A6.175,6.175,0,0,0,354.94,418h-.016a6.176,6.176,0,0,0-4.29,2.007l-5.309,5.564-5.308-5.61a6.126,6.126,0,0,0-4.29-1.961h-.016a6.193,6.193,0,0,0-4.284,1.985l-5.364,5.562-5.125-5.352a5.661,5.661,0,0,0-6.369-1.418,5.847,5.847,0,0,0-3.569,5.6V473H242V358a6,6,0,0,0-12,0V473H161V424.372a6.16,6.16,0,0,0-10.57-4.131l-5.161,5.4-5.383-5.655a6.225,6.225,0,0,0-4.3-1.985h-.016a6.176,6.176,0,0,0-4.29,2.007l-5.309,5.564-5.308-5.61a6.126,6.126,0,0,0-4.29-1.961h-.016a6.193,6.193,0,0,0-4.284,1.985l-5.364,5.562-5.125-5.352A6.174,6.174,0,0,0,91,424.372V473H23V283H89v31.616A6.519,6.519,0,0,0,95.208,321h61.525A6.572,6.572,0,0,0,163,314.616V283h67v35a6,6,0,0,0,12,0V283h67v31.616c0,3.314,2.249,6.384,5.563,6.384h61.525c3.314,0,5.912-3.07,5.912-6.384V283h66Zm3.918-202-29.867-.033L451.792,242H480.74ZM489,435.973l-29,28.554V279.306l29-28.6Z"/></svg>
