<svg id="Layer_5" enable-background="new 0 0 64 64" fill="
#69707a" height="512" viewBox="0 0 64 64" width="512" xmlns="http://www.w3.org/2000/svg"><g><path d="m5.788 43.303c.229.721.512 1.437.84 2.127l1.807-.859c-.29-.608-.539-1.238-.74-1.873z"/><path d="m11.358 27.713-.701-.713-.737-.677c-3.173 3.173-4.92 7.391-4.92 11.878 0 .997.088 1.998.263 2.975l1.969-.352c-.154-.861-.232-1.743-.232-2.623 0-3.953 1.539-7.669 4.328-10.458z"/><path d="m27.451 21.109h2v2h-2z" transform="matrix(.707 -.707 .707 .707 -7.3 26.593)"/><path d="m30.28 23.936h2v2.001h-2z" transform="matrix(.707 -.707 .707 .707 -8.471 29.422)"/><path d="m35.819 32.392 1.84-.783c-.276-.648-.599-1.288-.958-1.899l-1.725 1.014c.317.537.601 1.098.843 1.668z"/><path d="m33.929 29.171 1.582-1.224c-.429-.555-.9-1.091-1.401-1.595l-1.418 1.41c.442.446.858.92 1.237 1.409z"/><path d="m23 43h-2v2c-1.654 0-3 1.346-3 3s1.346 3 3 3h2c.552 0 1 .449 1 1s-.448 1-1 1h-3v-1h-2v3h3v2h2v-2c1.654 0 3-1.346 3-3s-1.346-3-3-3h-2c-.552 0-1-.449-1-1s.448-1 1-1h3v1h2v-3h-3z"/><path d="m61 23c0 2.531-1.365 5.099-4.058 7.63-3.765 3.538-8.668 5.697-14.01 6.231-.322-5.049-2.422-9.764-6.024-13.366l-7.494-7.495 5.586-5.586v-.414c0-2.214-1.656-4.09-3.853-4.364l-1.842-.23.96-3.12-5.667-1.417-2.551 3.4-1.587-2.381-6.768 1.354.732 2.197-1.573.197c-2.195.274-3.851 2.15-3.851 4.364v.414l5.586 5.586-7.494 7.494c-3.929 3.928-6.092 9.152-6.092 14.707 0 6.965 3.447 13.4 9.227 17.276 2.072 4.435 6.563 7.523 11.773 7.523h41v-40zm-20.676 16c.901 0 1.793-.045 2.676-.129v22.129h-4v-22zm4.676-.396c1.368-.232 2.706-.561 4-.992v23.388h-4zm6-1.755c1.4-.599 2.737-1.32 4-2.154v26.305h-4zm-20.101-29.229c1.068.134 1.902.962 2.069 1.997l-5.382 5.383h-1.232l2.355-7.654zm-11.36-3.508 2.413 3.619 3.449-4.6 2.333.583-3.473 11.286h-4.541l-3.413-10.242zm-6.438 3.508 1.97-.246 2.542 7.626h-1.199l-5.383-5.383c.167-1.034 1.001-1.863 2.07-1.997zm-10.101 30.581c0-5.021 1.955-9.742 5.506-13.293l7.908-7.908h11.172l7.908 7.908c3.252 3.252 5.149 7.507 5.444 12.064-.206.005-.407.028-.614.028h-18.324c-7.168 0-13 5.832-13 13 0 .729.075 1.44.191 2.137-3.916-3.537-6.191-8.56-6.191-13.936zm8 11.799c0-6.065 4.935-11 11-11s11 4.935 11 11-4.935 11-11 11-11-4.935-11-11zm24 0c0-4.634-2.444-8.698-6.104-11h8.104v22h-8.104c3.66-2.302 6.104-6.366 6.104-11zm22 11v-27.774c.448-.365.889-.741 1.312-1.139 1.088-1.023 1.977-2.063 2.688-3.115v32.028z"/><path d="m55 6.414v11.586h2v-11.586l2.293 2.293 1.414-1.414-4.707-4.707-4.707 4.707 1.414 1.414z"/><path d="m46 13.414v11.586h2v-11.586l2.293 2.293 1.414-1.414-4.707-4.707-4.707 4.707 1.414 1.414z"/></g></svg>