<svg height="511pt" viewBox="0 -38 511.99987 511" width="511pt" xmlns="http://www.w3.org/2000/svg"><path d="m502.695312 259.640625c-14.140624 15.519531-24.140624 11.730469-106.824218 11.730469-17.628906 0-32.878906-13.128906-35.46875-30.539063-3.691406-24.75-16.03125-46.332031-33.53125-62.089843-19.007813-17.109376-44.109375-27.359376-70.839844-27.371094h-.148438c-27.421874.03125-52.453124 10.5-71.222656 27.628906-.050781.050781-.109375.101562-.160156.152344-17.300781 15.859375-29.277344 37.410156-32.898438 61.679687-2.589843 17.410157-17.839843 30.539063-35.472656 30.539063h-80.25c-21.027344 0-37.699218-18.050782-35.71875-39.097656 5.828125-62.023438 33.839844-117.542969 76.011719-158.671876.429687-.421874.867187-.851562 1.308594-1.269531 46.230469-44.472656 109.160156-71.800781 178.402343-71.832031h.148438c68.910156.011719 131.601562 27.058594 177.800781 71.179688 43.28125 41.300781 72.089844 97.570312 78.011719 160.59375.941406 9.96875-2.398438 19.949218-9.148438 27.367187zm0 0" fill="#f1f2f2"/><path d="m502.695312 259.640625c-14.140624 15.519531-24.140624 11.730469-106.824218 11.730469-17.628906 0-32.878906-13.128906-35.46875-30.539063-3.691406-24.75-16.03125-46.332031-33.53125-62.089843-19.007813-17.109376-44.109375-27.359376-70.839844-27.371094h-.148438v-150.871094h.148438c68.910156.011719 131.601562 27.058594 177.800781 71.179688 43.28125 41.300781 72.089844 97.570312 78.011719 160.59375.941406 9.96875-2.398438 19.949218-9.148438 27.367187zm0 0" fill="#00c7ce"/><path d="m433.832031 71.679688-106.960937 107.0625c-19.007813-17.109376-44.109375-27.359376-70.839844-27.371094h-.03125c-27.46875 0-52.539062 10.46875-71.339844 27.628906-.050781.050781-.109375.101562-.160156.152344l-108.328125-105.550782c.429687-.421874.867187-.851562 1.308594-1.269531 46.261719-44.5 109.230469-71.832031 178.519531-71.832031h.03125c68.910156.011719 131.601562 27.058594 177.800781 71.179688zm0 0" fill="#ffdb83"/><path d="m433.832031 71.679688-106.960937 107.0625c-19.007813-17.109376-44.109375-27.359376-70.839844-27.371094v-150.871094c68.910156.011719 131.601562 27.058594 177.800781 71.179688zm0 0" fill="#fcad2d"/><path d="m406.769531 116.671875c1.710938-12.347656-11.804687-21.550781-22.726562-14.820313l-135.90625 83.699219c-7.054688 4.34375-9.25 13.582031-4.90625 20.636719l64.582031 58.851562c5.019531 0 9.917969-2.515624 12.757812-7.089843 87.359376-140.695313 87.121094-138.929688 86.199219-141.277344zm0 0" fill="#ff6961"/><g fill="#2d475c"><path d="m256.03125 316.710938h-.148438c-36.902343 0-66.953124-29.6875-66.953124-66.679688 0-39.960938 32.863281-66.398438 67.101562-66.660156 16.589844-.140625 33.5 5.871094 47.160156 19.46875 41.871094 41.683594 12.410156 113.753906-47.160156 113.871094zm0 0"/><path d="m427.132812 361.121094c0 8.292968-6.710937 15-15 15h-312.261718c-8.289063 0-15-6.707032-15-15 0-8.277344 6.710937-15 15-15h312.261718c8.289063 0 15 6.722656 15 15zm0 0"/><path d="m349.011719 420.503906c0 8.28125-6.71875 15-15 15h-156.261719c-8.277344 0-15-6.71875-15-15 0-8.289062 6.722656-15 15-15h156.261719c8.28125 0 15 6.710938 15 15zm0 0"/></g><path d="m256.03125 316.710938v-133.339844c16.589844-.140625 33.5 5.871094 47.160156 19.46875 41.871094 41.683594 12.410156 113.753906-47.160156 113.871094zm0 0" fill="#223c4d"/><path d="m349.011719 420.503906c0 8.28125-6.71875 15-15 15h-77.980469v-30h77.980469c8.28125 0 15 6.710938 15 15zm0 0" fill="#223c4d"/><path d="m427.132812 361.121094c0 8.292968-6.710937 15-15 15h-156.101562v-30h156.101562c8.289063 0 15 6.722656 15 15zm0 0" fill="#223c4d"/></svg>